<svg xmlns="http://www.w3.org/2000/svg" viewBox="0 0 26.56 27.2"><title>star</title><path d="M31.37,34a19.17,19.17,0,0,1,.61,2,.93.93,0,0,1-.14.49.94.94,0,0,1-.38.33c-.45.21-.62.13-1.27-.36l-5.28-3.81a1.77,1.77,0,0,0-1.14-.41,1.72,1.72,0,0,0-1.06.45l-.72.52L17.6,36.27a2.07,2.07,0,0,1-1,.53h0a.9.9,0,0,1-.61-.27.92.92,0,0,1-.29-.59,2.48,2.48,0,0,1,.19-.72S17.59,30.1,17.63,30a1.85,1.85,0,0,0,.18-.43H15.88s-1.68,5-1.68,5a3.79,3.79,0,0,0-.29,1.3,2.6,2.6,0,0,0,.82,1.84,2.73,2.73,0,0,0,1.85.77h0a3.44,3.44,0,0,0,2.09-.89L23.78,34l.06,0,5.48,4h0a3,3,0,0,0,1.75.67,2.76,2.76,0,0,0,1.14-.27,2.56,2.56,0,0,0,1.13-1A2.61,2.61,0,0,0,33.76,36a10.06,10.06,0,0,0-.7-2.52l-.73-2.23c-.22-.69-.84-2.56-.87-2.63.14-.11,5-3.55,5-3.55a4.75,4.75,0,0,0,1.41-1.26,2.56,2.56,0,0,0-.76-3.46,2.65,2.65,0,0,0-1.41-.46H28.58c0-.1-2.09-6.43-2.09-6.43a2.54,2.54,0,0,0-.44-.92,2.64,2.64,0,0,0-.87-.74,2.34,2.34,0,0,0-.59-.23,2.7,2.7,0,0,0-1.71.1,2.67,2.67,0,0,0-1.32,1.16,3.08,3.08,0,0,0-.27.64l-1.92,5.76h1.87S23,13.94,23,13.86a.89.89,0,0,1,.11-.26.87.87,0,0,1,.45-.4.89.89,0,0,1,.56,0l.2.08a.94.94,0,0,1,.3.24,1.21,1.21,0,0,1,.17.39l2,6.09a3.91,3.91,0,0,0,.28.76c.44.87,1.43.84,2.09.82h.33l5.64,0h0a3,3,0,0,1,1,.16.82.82,0,0,1,.35.52.89.89,0,0,1-.11.64,4.31,4.31,0,0,1-.89.7L30.93,26.8a3.54,3.54,0,0,0-1.07.91,1.81,1.81,0,0,0,0,1.67Z" transform="translate(-11.72 -11.41)" style="fill:#fff"/><path d="M19.87,20.35H12.76a.9.9,0,1,0,0,1.78h7.11a.9.9,0,1,0,0-1.78Z" transform="translate(-11.72 -11.41)" style="fill:#fff"/><path d="M14.67,15.93h0c-.05.4-.08.7-.12,1a5.26,5.26,0,0,1-.41,2c-.21.27-.54.2-1.17,0l-.71-.15s.12-2.06.33-3.24c.14-.79.32-1.43.54-1.53h0a.7.7,0,0,1,.25,0A1.62,1.62,0,0,1,14.67,15.93Z" transform="translate(-11.72 -11.41)" style="fill:#fff;fill-rule:evenodd"/><path d="M19.87,23.25H12.76a.9.9,0,1,0,0,1.78h7.11a.9.9,0,1,0,0-1.78Z" transform="translate(-11.72 -11.41)" style="fill:#fff"/><path d="M19.87,26.15H12.76a.9.9,0,1,0,0,1.78h7.11a.9.9,0,1,0,0-1.78Z" transform="translate(-11.72 -11.41)" style="fill:#fff"/></svg>